<?xml version="1.0" encoding="UTF-8" standalone="no"?>
<svg
   xmlns:dc="http://purl.org/dc/elements/1.1/"
   xmlns:cc="http://creativecommons.org/ns#"
   xmlns:rdf="http://www.w3.org/1999/02/22-rdf-syntax-ns#"
   xmlns:svg="http://www.w3.org/2000/svg"
   xmlns="http://www.w3.org/2000/svg"
   xmlns:xlink="http://www.w3.org/1999/xlink"
   xmlns:sodipodi="http://sodipodi.sourceforge.net/DTD/sodipodi-0.dtd"
   xmlns:inkscape="http://www.inkscape.org/namespaces/inkscape"
   width="148mm"
   height="105mm"
   viewBox="0 0 148 105"
   version="1.1"
   id="svg8"
   inkscape:export-filename="C:\Users\xy\Desktop\IV semestar\RaÄunarska grafika\vjezbe\Projekat - vektorska grafika\Logo-slika.png"
   inkscape:export-xdpi="96"
   inkscape:export-ydpi="96"
   inkscape:version="1.0.2-2 (e86c870879, 2021-01-15)"
   sodipodi:docname="logo.svg">
  <defs
     id="defs2">
    <linearGradient
       inkscape:collect="always"
       id="linearGradient1473">
      <stop
         style="stop-color:#00112b;stop-opacity:1;"
         offset="0"
         id="stop1469" />
      <stop
         style="stop-color:#00112b;stop-opacity:0;"
         offset="1"
         id="stop1471" />
    </linearGradient>
    <linearGradient
       inkscape:collect="always"
       id="linearGradient1071">
      <stop
         style="stop-color:#6600ff;stop-opacity:1"
         offset="0"
         id="stop1067" />
      <stop
         style="stop-color:#7f2aff;stop-opacity:0;"
         offset="1"
         id="stop1069" />
    </linearGradient>
    <linearGradient
       inkscape:collect="always"
       id="linearGradient1061">
      <stop
         style="stop-color:#6600ff;stop-opacity:1"
         offset="0"
         id="stop1057" />
      <stop
         style="stop-color:#7f2aff;stop-opacity:0;"
         offset="1"
         id="stop1059" />
    </linearGradient>
    <linearGradient
       inkscape:collect="always"
       id="linearGradient1053">
      <stop
         style="stop-color:#7137c8;stop-opacity:1;"
         offset="0"
         id="stop1049" />
      <stop
         style="stop-color:#7137c8;stop-opacity:0;"
         offset="1"
         id="stop1051" />
    </linearGradient>
    <linearGradient
       inkscape:collect="always"
       id="linearGradient965">
      <stop
         style="stop-color:#ff2ad4;stop-opacity:1;"
         offset="0"
         id="stop961" />
      <stop
         style="stop-color:#17919a;stop-opacity:0"
         offset="1"
         id="stop963" />
    </linearGradient>
    <linearGradient
       inkscape:collect="always"
       xlink:href="#linearGradient965"
       id="linearGradient967"
       x1="95.815742"
       y1="122.10625"
       x2="117.66155"
       y2="157.72154"
       gradientUnits="userSpaceOnUse" />
    <linearGradient
       inkscape:collect="always"
       xlink:href="#linearGradient1053"
       id="linearGradient1055"
       x1="102.15241"
       y1="135.86288"
       x2="92.931618"
       y2="135.46199"
       gradientUnits="userSpaceOnUse" />
    <linearGradient
       inkscape:collect="always"
       xlink:href="#linearGradient1061"
       id="linearGradient1063"
       x1="106.65687"
       y1="135.4738"
       x2="128.02209"
       y2="135.50565"
       gradientUnits="userSpaceOnUse" />
    <linearGradient
       inkscape:collect="always"
       xlink:href="#linearGradient1071"
       id="linearGradient1065"
       x1="106.65687"
       y1="135.4738"
       x2="128.02209"
       y2="135.50565"
       gradientUnits="userSpaceOnUse"
       gradientTransform="matrix(1.3790736,0,0,1.3790736,27.824606,-119.45688)" />
    <linearGradient
       inkscape:collect="always"
       xlink:href="#linearGradient965"
       id="linearGradient1186"
       gradientUnits="userSpaceOnUse"
       x1="95.815742"
       y1="122.10625"
       x2="117.66155"
       y2="157.72154"
       gradientTransform="matrix(1.3787735,-0.02877063,0.02877063,1.3787735,23.951037,-114.99697)" />
    <linearGradient
       inkscape:collect="always"
       xlink:href="#linearGradient1061"
       id="linearGradient1188"
       gradientUnits="userSpaceOnUse"
       x1="106.65687"
       y1="135.4738"
       x2="128.02209"
       y2="135.50565"
       gradientTransform="matrix(1.3790736,0,0,1.3790736,27.824606,-119.45688)" />
    <linearGradient
       inkscape:collect="always"
       xlink:href="#linearGradient1053"
       id="linearGradient1190"
       gradientUnits="userSpaceOnUse"
       x1="102.15241"
       y1="135.86288"
       x2="92.931618"
       y2="135.46199"
       gradientTransform="matrix(1.3790736,0,0,1.3790736,27.824606,-119.45688)" />
    <linearGradient
       inkscape:collect="always"
       xlink:href="#linearGradient1473"
       id="linearGradient1475"
       x1="103.78744"
       y1="167.21049"
       x2="103.78744"
       y2="169.97006"
       gradientUnits="userSpaceOnUse"
       gradientTransform="matrix(1.3790736,0,0,1.3790736,-38.392849,-119.91871)" />
  </defs>
  <sodipodi:namedview
     id="base"
     pagecolor="#ffffff"
     bordercolor="#666666"
     borderopacity="1.0"
     inkscape:pageopacity="0.0"
     inkscape:pageshadow="2"
     inkscape:zoom="0.70710678"
     inkscape:cx="375.26974"
     inkscape:cy="329.09412"
     inkscape:document-units="mm"
     inkscape:current-layer="layer1"
     inkscape:document-rotation="0"
     showgrid="false"
     showguides="false"
     inkscape:guide-bbox="true"
     inkscape:snap-global="false"
     inkscape:window-width="1366"
     inkscape:window-height="705"
     inkscape:window-x="-8"
     inkscape:window-y="-8"
     inkscape:window-maximized="1">
    <sodipodi:guide
       position="78.052082,184.93006"
       orientation="1,0"
       id="guide26" />
    <sodipodi:guide
       position="130.02381,161.30655"
       orientation="1,0"
       id="guide28" />
    <sodipodi:guide
       position="30.025483,175.14993"
       orientation="1,0"
       id="guide30" />
    <sodipodi:guide
       position="38.671688,174.44122"
       orientation="1,0"
       id="guide32" />
    <sodipodi:guide
       position="73.79985,165.51154"
       orientation="1,0"
       id="guide34" />
    <sodipodi:guide
       position="82.257067,166.12575"
       orientation="1,0"
       id="guide36" />
    <sodipodi:guide
       position="125.7169,160.85959"
       orientation="1,0"
       id="guide38" />
    <sodipodi:guide
       position="134.23612,162.56343"
       orientation="1,0"
       id="guide40" />
    <sodipodi:guide
       position="169.34865,168.54359"
       orientation="1,0"
       id="guide42" />
    <sodipodi:guide
       position="177.93468,167.94223"
       orientation="1,0"
       id="guide44" />
    <sodipodi:guide
       position="98.388593,190.19242"
       orientation="0,-1"
       id="guide46" />
    <sodipodi:guide
       position="34.026751,196.12246"
       orientation="0,-1"
       id="guide48" />
    <sodipodi:guide
       position="33.158125,123.95969"
       orientation="0,-1"
       id="guide50" />
    <sodipodi:guide
       position="103.8962,129.79279"
       orientation="0,-1"
       id="guide52" />
    <sodipodi:guide
       position="81.483795,108.07386"
       orientation="1,0"
       id="guide62" />
    <sodipodi:guide
       position="104.74665,112.45313"
       orientation="0,-1"
       id="guide1391" />
    <sodipodi:guide
       position="95.882941,120.30144"
       orientation="1,0"
       id="guide1393" />
    <sodipodi:guide
       position="112.92137,119.26577"
       orientation="1,0"
       id="guide1395" />
  </sodipodi:namedview>
  <metadata
     id="metadata5">
    <rdf:RDF>
      <cc:Work
         rdf:about="">
        <dc:format>image/svg+xml</dc:format>
        <dc:type
           rdf:resource="http://purl.org/dc/dcmitype/StillImage" />
        <dc:title></dc:title>
      </cc:Work>
    </rdf:RDF>
  </metadata>
  <g
     inkscape:label="Layer 1"
     inkscape:groupmode="layer"
     id="layer1">
    <g
       id="g166"
       transform="matrix(0.71751111,0,0,0.74274186,-1.3953903,-13.769809)">
      <path
         style="fill:#0055d4;stroke:none;stroke-width:0.364879px;stroke-linecap:butt;stroke-linejoin:miter;stroke-opacity:1"
         d="m 3.0145006,27.376804 v 83.295536 c -0.1476326,5.7377 2.1805856,6.93114 4.4353282,8.04427 l 7.4884252,-0.62199 48.444322,-6.41567 c 1.785862,-0.26837 3.344308,-0.50173 5.881415,-0.88567 l 5.781708,-0.12094 h 59.934311 5.93954 l 5.80909,0.97207 48.28454,6.35806 5.89736,0.9445 c 2.13256,-0.64815 4.50051,-0.37266 5.94341,-4.46906 l 0.13822,-3.80557 -0.0461,-86.152066 c -0.64153,-2.34506 -1.36486,-4.649919 -5.55179,-5.252326 l -6.2429,0.921469 -54.23185,7.187387 H 69.246714 L 8.5325436,19.198842 c -2.9001063,0.120669 -5.0134593,2.511004 -5.5180417,4.58571 z"
         id="path54"
         sodipodi:nodetypes="cccccccccccccccccccccc" />
      <path
         style="fill:#ffffff;stroke:none;stroke-width:0.364879px;stroke-linecap:butt;stroke-linejoin:miter;stroke-opacity:1"
         d="M 14.904939,32.158011 V 106.0235 L 63.349262,99.50416 V 38.296116 Z"
         id="path56" />
      <path
         style="fill:#ffffff;stroke:none;stroke-width:0.364879px;stroke-linecap:butt;stroke-linejoin:miter;stroke-opacity:1"
         d="M 75.045699,38.873699 V 98.62278 L 134.98001,98.56886 V 38.69693 L 75.045699,38.60481 Z"
         id="path58" />
      <path
         style="fill:#ffffff;stroke:none;stroke-width:0.364879px;stroke-linecap:butt;stroke-linejoin:miter;stroke-opacity:1"
         d="m 146.72864,38.429389 v 61.296567 l 48.42276,6.417974 V 32.141724 Z"
         id="path60" />
      <path
         style="fill:#0055d4;stroke:none;stroke-width:0.413722;stroke-linecap:butt;stroke-linejoin:miter;stroke-miterlimit:4;stroke-dasharray:none;stroke-opacity:1"
         d="m 87.066041,138.60321 -13.084781,0.0341 c -7.086192,2.80928 -5.401212,9.48682 -0.379541,11.93255 l 62.198621,0.011 c 5.63092,-1.77579 7.61805,-9.04256 0.011,-11.97899 z"
         id="path64"
         sodipodi:nodetypes="cccccc" />
      <path
         id="path68"
         style="fill:url(#linearGradient1186);fill-opacity:1;stroke:none;stroke-width:1.70292;stroke-linecap:round;stroke-linejoin:round;stroke-miterlimit:4;stroke-dasharray:none;stroke-opacity:1;paint-order:markers fill stroke"
         inkscape:transform-center-x="-9.4746442e-06"
         inkscape:transform-center-y="-5.379473e-06"
         d="m 170.94084,93.381733 -20.99191,-12.11875 -8.1e-4,-24.238892 20.99109,-12.120142 20.99191,12.118737 8.1e-4,24.238892 z" />
      <path
         style="fill:#000000;stroke:none;stroke-width:0.364879px;stroke-linecap:butt;stroke-linejoin:miter;stroke-opacity:1"
         d="m 180.39185,60.52716 c -3.17861,-3.285243 -5.9708,-6.894251 -13.54548,-6.496305 -6.53133,1.109506 -10.34381,4.437031 -12.20935,9.352835 -1.03161,2.758589 -0.85548,5.642797 -0.46074,8.339217 1.05857,3.574311 2.64366,5.945118 4.56123,7.555972 2.27294,2.060074 4.49981,2.755361 6.77274,3.24816 1.90241,0.264285 3.81983,0.272491 5.71306,0.05764 3.49522,-0.570247 6.42238,-3.100171 9.12246,-6.300491 l -6.58844,-4.00836 c -2.2726,2.603925 -4.56226,3.033286 -7.32561,2.718319 -3.80905,-1.646186 -5.04157,-4.079713 -4.92981,-7.141325 0.72684,-3.986874 2.92048,-5.692085 5.98949,-6.035571 2.13763,-0.22883 4.2034,0.260948 6.08163,2.62617 z"
         id="path893"
         sodipodi:nodetypes="cccccccccccccc" />
      <path
         style="fill:url(#linearGradient1188);fill-opacity:1;stroke:none;stroke-width:0.364879px;stroke-linecap:butt;stroke-linejoin:miter;stroke-opacity:1"
         d="m 177.14392,65.058382 0.0163,2.313079 h -2.24792 v 2.133896 h 2.19904 v 2.199057 h 2.08504 v -2.133896 h 2.23163 v -2.18277 h -2.1339 v -2.280491 z"
         id="path901" />
      <path
         style="fill:url(#linearGradient1065);fill-opacity:1;stroke:none;stroke-width:0.364879px;stroke-linecap:butt;stroke-linejoin:miter;stroke-opacity:1"
         d="m 185.02794,65.207102 0.0163,2.313078 h -2.24792 v 2.133896 h 2.19904 v 2.199057 h 2.08504 v -2.133896 h 2.23163 v -2.18277 h -2.13389 v -2.280491 z"
         id="path901-3" />
      <path
         style="fill:url(#linearGradient1190);fill-opacity:1;stroke:none;stroke-width:0.364879px;stroke-linecap:butt;stroke-linejoin:miter;stroke-opacity:1"
         d="m 176.89958,60.122733 c -2.18306,-2.075133 -4.87998,-4.344964 -9.13829,-4.056021 -6.8062,0.461824 -10.88449,4.426468 -11.77714,11.288462 -0.25212,6.588566 3.33461,10.193147 7.00438,12.282112 7.98798,2.470735 10.8413,-0.450708 14.04136,-2.80989 L 174.22,74.962268 c -2.18902,1.741425 -3.92478,2.352976 -6.11663,2.329366 -4.35046,-0.04689 -7.29639,-2.696475 -8.50301,-6.841501 -1.10847,-3.807857 0.13004,-7.250549 3.97458,-9.545507 5.30399,-3.166215 8.7162,0.164745 10.32742,1.075085 z"
         id="path895"
         sodipodi:nodetypes="csccccssscc" />
      <path
         style="fill:#80ff80;stroke:none;stroke-width:0.0565896px;stroke-linecap:butt;stroke-linejoin:miter;stroke-opacity:1"
         d="m 92.607771,68.170944 c 1.603807,-2.973786 19.012259,-3.898629 23.161349,-1.576426 1.55983,0.882574 1.99106,1.559949 1.45516,2.061481 -2.54373,2.489345 -14.10627,1.285233 -13.87457,0.495159 -0.104,-0.469815 0.77515,-0.893707 1.4247,-0.995735 0,0 1.15171,-0.104026 1.16263,0.184917 0.0216,0.571102 -1.1881,0.51657 -1.1881,0.51657 -0.30196,-0.106903 -0.56818,-0.146783 -0.76263,-0.05211 -0.50648,0.765608 2.90358,0.895317 3.2798,0.9575 2.68838,0.17894 5.16541,0.252944 6.71679,-0.200074 2.67234,-0.467166 1.69882,-1.409601 1.15043,-1.907856 -0.64318,-0.243393 -1.05735,-1.296647 -9.25345,-1.214739 -2.276,0.11012 -10.921521,0.675156 -11.775829,2.336587 0.08458,1.774757 6.490769,2.411262 10.046609,2.472352 7.50701,0.452139 11.6905,-0.450047 14.68406,-0.950355 -0.89936,0.469899 -1.51325,0.75975 -2.69336,1.012931 -4.34616,0.854494 -8.32545,0.577832 -12.46894,0.807444 L 96.719313,71.377188 C 93.533049,70.651274 91.943145,69.62395 92.607771,68.170944 Z"
         id="path1132"
         sodipodi:nodetypes="cccccsccccccccccccc" />
      <path
         style="fill:#80ff80;stroke:none;stroke-width:0.0565896px;stroke-linecap:butt;stroke-linejoin:miter;stroke-opacity:1"
         d="m 91.72459,69.476478 c 0.716355,1.500607 1.228139,3.352326 1.643471,5.294835 0.815943,4.865623 1.669248,6.630537 2.522371,8.410284 4.146728,7.0728 16.321998,5.238172 17.749488,3.001121 1.5488,-1.635105 3.11991,-4.720406 4.74463,-11.289931 l 1.24984,-5.514259 c -0.26717,2.947774 -0.30231,5.410377 -1.35916,10.009299 l 1.42485,-0.939793 c 1.1876,-0.349266 2.32077,-0.749068 3.2438,-1.344005 0.99223,-0.852367 2.25201,-1.647176 2.01095,-3.819803 -0.22922,-1.22347 -0.73079,-2.149846 -2.71832,-1.455163 0,0 -2.17981,0.98964 -2.21306,0.757897 -0.0434,-0.302383 0.0632,-0.546045 0.44463,-0.970108 1.12341,-1.235081 4.20249,-2.049043 5.62865,0.111158 1.2606,1.754693 0.51346,4.575113 -2.84918,6.42993 -2.14235,0.694892 -4.56462,1.247016 -5.07337,2.220206 -0.098,0.17448 -0.51403,0.626814 -0.35874,1.566322 0.6714,-0.273556 0.80766,0.07323 0.8539,0.207158 0.0482,0.284235 0.0159,0.53634 -0.62653,0.414318 -0.23433,-0.232944 -0.23165,-0.168876 -0.50526,-0.611371 -0.90443,3.390001 -3.1545,5.635814 -3.1545,5.635814 -1.08286,0.781036 -3.67311,2.377618 -9.58929,2.165094 -7.537027,-0.59295 -9.486217,-2.999939 -11.218479,-6.831123 0,0 -1.957357,-5.073909 -2.264622,-9.524478 0.09262,-1.386081 -0.09446,-3.173206 0.413931,-3.923402 z"
         id="path1134"
         sodipodi:nodetypes="cccccccccccsccccccccccccc" />
      <path
         style="fill:#80ff80;stroke:none;stroke-width:0.0565896px;stroke-linecap:butt;stroke-linejoin:miter;stroke-opacity:1"
         d="m 96.261999,77.343702 c 0.882842,0.06464 1.627524,3.791541 2.558098,5.087615 2.016693,3.304934 4.741103,3.61003 6.445263,4.437371 -1.7112,-0.515256 -3.73309,-0.617682 -6.202316,-2.765318 -1.596191,-1.614659 -2.299329,-3.510356 -2.793899,-5.180506 -0.138628,-0.466841 -0.355094,-1.290959 -0.0071,-1.579162 z"
         id="path1138"
         sodipodi:nodetypes="cccccc" />
      <path
         style="fill:#80ff80;stroke:none;stroke-width:0.0565896px;stroke-linecap:butt;stroke-linejoin:miter;stroke-opacity:1"
         d="m 91.314293,87.492277 c 0.625069,-0.236678 0.424845,2.513762 7.245498,4.456438 1.996499,0.628512 6.206139,1.092739 11.439199,0.606317 -3.28953,0.59982 -6.58346,0.975192 -10.539826,0.454738 -0.907004,-0.225796 -5.136474,-0.436438 -7.659816,-3.617697 -0.251829,-0.372405 -0.347576,-0.567547 -0.485055,-1.899796 z"
         id="path1140"
         sodipodi:nodetypes="cccccc" />
      <path
         style="fill:#80ff80;stroke:none;stroke-width:0.0565896px;stroke-linecap:butt;stroke-linejoin:miter;stroke-opacity:1"
         d="m 91.974684,84.382046 c -0.55259,-0.514477 -2.219873,-0.400152 -5.001867,0.342985 -2.960518,1.077602 -5.914706,2.158834 -6.34523,4.687464 0.775464,4.520504 7.011013,5.708699 7.888662,6.145153 13.864641,3.390179 22.879781,1.644532 27.834061,1.186876 8.01698,-1.557405 11.00857,-3.700101 12.43812,-5.559938 1.45719,-2.520596 0.21183,-4.418786 -2.77246,-5.916496 1.19808,0.946994 2.68333,1.68444 2.94396,3.315525 -0.002,4.699496 -8.64719,6.318803 -12.1474,6.831121 -4.15043,0.434015 -11.20185,1.576026 -22.465532,-0.285819 -1.930022,-0.407409 -11.582409,-2.054677 -11.518588,-5.630675 0.629263,-2.286953 3.506757,-3.019982 5.859332,-4.115823 1.108686,-0.326214 2.393229,-0.55473 3.286942,-1.000373 z"
         id="path1142"
         sodipodi:nodetypes="ccccccccccccc" />
      <path
         style="fill:#808080;stroke:none;stroke-width:0.0565896px;stroke-linecap:butt;stroke-linejoin:miter;stroke-opacity:1"
         d="m 87.115726,66.689723 c 3.252082,-0.810688 7.400401,-1.936824 12.21885,-4.415935 2.454314,-1.668537 3.257334,-2.914843 2.358024,-3.859302 -0.70391,-0.814515 -4.090762,-1.199162 -9.432096,-1.286195 -1.670573,-0.163283 -3.71496,-0.04769 -3.772836,-1.414096 -0.162059,-0.836317 5.279692,-3.460483 8.145898,-6.25948 -3.074523,1.748238 -4.255252,2.406111 -4.830375,2.7153 -1.927528,1.581262 -3.880048,3.169004 -3.801419,4.230151 0.02336,1.754516 5.800316,1.369894 8.746122,1.572016 2.014914,0.224689 3.313686,0.376654 3.887166,1.186157 0.15102,0.711376 2.33675,2.053128 -13.519334,7.531384 z"
         id="path1144"
         sodipodi:nodetypes="ccccccccccc" />
      <path
         style="fill:#666666;stroke:none;stroke-width:0.0565896px;stroke-linecap:butt;stroke-linejoin:miter;stroke-opacity:1"
         d="m 103.01623,64.088403 c 4.18847,-0.88591 8.36732,-1.841584 12.44973,-3.496433 0.93303,-0.613055 2.31388,-1.22611 -0.20211,-1.839165 -4.01161,-0.81455 -7.08502,-0.041 -11.35835,-0.899372 -1.65427,-0.870165 0.32451,-1.644398 0.60631,-1.859374 2.95782,-1.293685 3.66392,-1.29247 5.26486,-1.738112 -3.51653,0.973641 -5.41991,1.865947 -5.7297,2.677904 -0.30337,0.994771 4.46903,0.904158 8.22572,1.030741 l 4.05222,0.313264 c 1.96531,0.400016 2.28378,1.330058 -0.091,2.435377 -3.26757,1.593099 -14.47268,3.944687 -13.21773,3.37517 z"
         id="path1146"
         sodipodi:nodetypes="ccccccccccc" />
      <g
         aria-label="JaVa"
         transform="matrix(0.19712811,0.08298268,-0.08298268,0.19712811,144.50859,65.260618)"
         id="text1159"
         style="font-size:10.5833px;line-height:1.25;font-family:sans-serif;letter-spacing:0.79375px;word-spacing:0.0343958px;writing-mode:lr-tb;fill:#666666;stroke-width:0.264583">
        <path
           d="m -178.64948,-26.891098 q 0,0.355469 -0.24609,1.257812 -0.21875,0.792969 -0.13672,1.3125 l -0.4375,0.382813 -1.96875,0.21875 q -0.38281,-0.464844 -0.875,-1.640625 -0.49219,-1.175781 -0.92969,-1.75 -1.5039,0.574219 -1.80468,0.984375 v 0.21875 l -0.60157,0.21875 q -0.27343,0.410156 -0.98437,0.765625 v 0.820312 q 0,0.164063 0.16406,0.984375 l -0.38281,1.367188 h -0.19141 v 0.601562 l -0.98437,1.203125 -0.4375,0.21875 -0.16406,0.765625 -0.4375,0.4375 v 0.765625 h -0.16407 q -0.27343,1.339844 -0.21875,1.804688 l -0.38281,0.246094 v 0.984375 l -0.27344,0.601562 -0.92968,0.601563 -0.21875,0.382812 0.0547,0.765625 q -0.21875,0.382813 -0.4375,0.820313 -0.10937,0.875 -0.38281,2.6249997 -0.38281,0.984375 -0.92969,3.0078125 -0.73828,1.0117188 -2.07812,2.9804688 -0.35547,0.8476562 -1.20313,2.40624998 l -0.0547,0.4921875 q -0.92969,1.39453122 -0.92969,2.13281252 -0.32813,0.3828125 -0.82031,1.1484375 h 0.21875 v 0.21875 q -0.21875,0.7929687 -0.21875,0.765625 l -0.41016,0.21875 -0.21875,1.203125 0.21875,0.6015625 q -0.57422,0.5742187 -0.98438,2.8164062 h -0.21875 v 0.6015625 q -1.23046,1.0937503 -1.96875,3.3906253 l -0.4375,0.382812 -0.38281,0.984375 -0.60156,0.382813 v 0.21875 h -0.16406 q -1.72266,2.488281 -3.17188,3.582031 l -0.21875,1.421875 -0.60156,0.984375 v 0.21875 h -0.21875 l -0.38281,1.203125 -0.60157,0.21875 0.16407,0.382812 0.4375,0.21875 q 1.47656,0.820313 4.59375,2.1875 l 0.38281,0.382813 h 1.20312 q 0.90235,-0.464844 1.77735,-0.902344 1.33984,-0.65625 1.80469,-0.519531 l 2.40625,-1.148438 0.21875,-0.4375 q 1.80468,-0.164062 1.80468,-0.164062 0,0 1.96875,0.164062 l 1.36719,0.984375 v 0.4375 l 0.4375,0.601563 v 0.984375 l -0.4375,0.21875 -0.16406,0.984375 -0.82031,0.984375 v 0.601562 l -1.96875,0.820313 q -0.46485,-0.02734 -1.3125,0.05469 -0.92969,0.109375 -1.3125,0.109375 -0.10938,0 -0.38282,-0.08203 -0.27343,-0.08203 -0.38281,-0.08203 -0.0273,0 -2.65234,0.164062 -1.39453,-0.519531 -2.57032,-1.367187 h -1.36718 l -1.20313,0.601562 h -0.60156 l -0.4375,0.382813 v 0.21875 l -1.14844,0.164062 -1.80469,1.230469 -0.98437,0.21875 v 0.382813 q -3.60938,0.519531 -5.05859,1.96875 -0.35547,-0.109375 -3.55469,1.039062 l -1.58594,-0.21875 -1.03906,-1.203125 -0.79297,-0.382812 -0.38281,-1.203125 -0.4375,-0.21875 v -0.164063 l -0.76563,-0.4375 h -2.40625 l -0.60156,-0.382812 h -1.36719 l -0.82031,-0.410157 q -2.13281,0.164063 -2.1875,0.164063 -1.42188,0 -2.1875,-0.765625 l -0.24609,-0.820313 q -1.1211,-1.476562 -3.39063,-1.96875 -1.61328,-2.433593 -1.61328,-4.320312 0,-0.246094 0.0273,-0.492188 l 0.98438,-1.203125 h 0.82031 l 0.49219,-0.65625 1.3125,-0.109375 0.875,-0.4375 q 0.90234,0.300782 2.70703,0.382813 1.80469,0.08203 2.67969,0.382812 0.79297,-0.136718 2.89843,-0.902343 1.64063,-0.601563 3.60938,-0.601563 0.84766,0 2.51562,0.519531 1.66797,0.519532 2.26954,1.039063 h 0.82031 l 0.21875,0.382812 1.96875,0.4375 0.82031,0.601563 q 0.82031,-1.367188 2.1875,-3.035156 0.49219,-1.148438 1.23047,-2.1875 v -0.820313 q 0.4375,-0.738281 1.36719,-2.1875 v -0.601562 l 0.38281,-0.164063 0.21875,-0.4375 0.82031,-0.601562 v -0.164063 l 0.38281,-0.820312 0.4375,-0.382813 q 0.95704,-2.5703123 3.33594,-7.410156 0.0547,-0.1367188 1.20313,-0.984375 0.27343,-0.68359377 0.875,-1.58593752 l -0.21875,-0.21875 q 0.38281,-0.57421875 0.6289,-1.58593748 0.32813,-1.421875 0.41016,-1.640625 0.4375,-1.2304688 1.50391,-2.7617188 v -0.6015625 l 0.60156,-0.8203125 v -0.3828125 l 0.60156,-1.5859375 0.54688,-0.5468752 0.21875,-1.148437 -0.38282,-0.929688 0.10938,-0.765625 0.71094,-0.820312 q 0.71093,-3.253907 2.46093,-4.128907 1.20313,-2.105468 1.75,-5.03125 l -0.4375,-0.820312 q -1.55859,1.804687 -3.39062,3.007812 v 0.382813 l -0.60156,0.382812 -0.16407,0.21875 q -0.1914,0.05469 -1.80468,1.203125 l -0.38282,0.601563 -1.44922,0.765625 -0.76562,0.984375 h -0.21875 q -1.36719,1.039062 -3.60938,3.417969 l -1.20312,0.601562 -0.10938,0.875 -0.27343,0.492188 0.10937,1.0937497 0.10938,0.1640625 q 0.16406,1.96875 0.16406,1.96875 0,0.4921875 -0.24609,1.4765625 -0.27344,1.0664063 -0.30079,1.53125 h 0.16407 q 0.30078,0.7929688 0.21875,1.2304688 l 0.16406,0.1640625 -0.16406,1.421875 0.71093,0.21875 q 0.46485,-0.4648438 1.09375,-0.8203125 l 0.38282,-0.984375 1.20312,-0.21875 0.60156,0.21875 0.38282,0.6015625 -0.49219,1.09375 q -1.3125,1.01171873 -2.67969,1.25781248 l -1.20312,-0.1640625 -0.60157,0.1640625 -0.98437,-0.1640625 -0.4375,-1.42187498 q -0.57422,-0.7109375 -1.58594,-2.1875 l -0.6289,-0.4101563 q -0.57422,-2.2695312 -0.57422,-2.2695312 0,-0.2734375 0.082,-0.5195313 l -0.49219,-1.203125 0.10938,-1.203125 q 0.46484,-1.1210942 1.12109,-1.9687502 0.875,-0.683594 1.75,-1.339844 0.98437,-0.710937 2.02344,-0.847656 l 0.60156,-0.601562 h 0.21875 l 0.60156,-1.039063 q 0.73828,-0.273437 1.77735,-1.367187 1.23046,-1.339844 1.61328,-1.613282 0.41015,-0.300781 2.48828,-1.339843 1.3125,-0.628907 2.29687,-1.886719 l 0.38282,-0.164063 q 1.0664,-1.203125 2.625,-2.40625 l 0.16406,-0.601562 1.03906,-0.765625 h 1.20313 q 1.17578,-0.738281 3.55468,-2.050781 0.62891,-0.164063 1.83203,-0.601563 1.39454,-0.65625 3.17188,-1.585937 h 0.82031 q -0.16406,0 1.36719,0.21875 1.28516,1.066406 1.42187,1.585937 z m -14.41015,53.484375 v -0.984375 h -0.16406 l -0.21875,-0.765625 -0.16407,-0.21875 q -0.68359,0.246094 -2.40625,0.382812 l -0.21875,0.21875 q -1.36718,0.601563 -4.18359,1.585938 v 0.21875 l 0.98437,0.601562 1.83204,0.164063 0.38281,-0.382813 q 1.3125,-0.628906 3.60937,-0.382812 z m -12.9336,1.203125 v -0.382813 q -1.28515,-0.464843 -4.45703,-0.820312 -1.69531,0.410156 -3.39062,1.804687 v 0.21875 h -0.76563 q -1.12109,0.65625 -2.02343,0.820313 v 0.164062 l -1.75,1.011719 -1.64063,0.21875 -0.16406,0.382813 0.60156,0.601562 h 0.60156 v -0.164062 l 1.75,0.601562 1.42188,-0.4375 0.38281,-0.601562 q 1.80469,-0.574219 5.82422,-1.394532 l 0.21875,-0.382812 q 0.54687,-0.300781 1.69531,-0.820313 1.14844,-0.519531 1.69531,-0.820312 z m -7.02734,-2.789063 v -0.382812 l -1.20312,-1.367188 v -0.4375 l -0.38282,-0.601562 q -0.76562,-0.273438 -2.02343,-0.382813 l -1.58594,-0.984375 q -1.44922,-0.164062 -2.95313,-0.601562 -0.71093,0.273437 -1.9414,0.382812 -1.44922,0.109375 -1.91407,0.21875 -0.60156,0.300782 -1.80468,0.765625 -0.875,0.21875 -3.82813,0.355469 -2.40625,0.109375 -3.74609,0.847656 -0.98438,1.3125 -0.98438,2.1875 0.30078,0.492188 1.80469,1.421875 l 1.39453,0.164063 0.98438,1.203125 q 1.0664,0.820312 3.22656,1.121094 2.78906,0.382812 3.44531,0.628906 l 1.09375,-0.109375 0.21875,-0.4375 -0.60156,-0.601563 q -1.36719,-0.191406 -2.35156,-0.765625 l -0.82032,-0.820312 h -0.21875 l -1.36718,-1.203125 v -0.382813 l 0.76562,-1.804687 0.98438,-0.164063 1.80468,0.546875 q 0.21875,0.136719 0.4375,0.601563 0.84766,0.355469 1.14844,0.820312 l 0.21875,1.367188 0.38281,0.4375 q 0,1.121094 1.03907,2.40625 h 1.17578 q 0,0 1.80469,-0.601563 1.0664,-0.710937 1.42187,-1.421875 l 0.76563,-0.21875 v -0.164062 l 2.1875,-0.601563 z"
           style="font-style:normal;font-variant:normal;font-weight:normal;font-stretch:normal;font-size:56px;font-family:'Blackadder ITC';-inkscape-font-specification:'Blackadder ITC, Normal';font-variant-ligatures:normal;font-variant-caps:normal;font-variant-numeric:normal;font-variant-east-asian:normal;writing-mode:lr-tb;fill:#666666;stroke-width:0.264583"
           id="path103" />
        <path
           d="m -169.35182,-1.734848 -0.21875,0.3828125 -0.38281,0.21875 v 0.21874998 l -1.58594,0.1640625 -0.21875,0.4375 v 0.546875 l -0.16406,0.21875 V 1.0542145 h -0.21875 v 0.21875 l -0.32813,0.3828125 -0.10937,0.4921875 -0.4375,0.328125 0.16406,0.3828125 q -0.24609,0.4375 -0.68359,1.96875 l -0.82031,0.984375 h 0.21875 v 0.21875 q -0.90235,0.6015625 -1.42188,1.2304687 l -0.10937,0.328125 0.10937,0.2734375 -0.21875,1.8046875 h -0.16406 v 0.3828123 l -0.38281,0.601563 0.16406,0.382812 0.60156,0.164063 q 0.71094,-0.792969 2.21484,-1.3671878 l 0.32813,0.6015628 -0.51953,1.039062 q -1.20313,0.765625 -2.02344,1.96875 -1.64062,0.464844 -2.1875,0.382813 v -0.164063 h -0.60156 q -0.51953,-0.628906 -1.20313,-1.039062 0.0547,-0.628907 -0.16406,-1.75 l -0.4375,-0.4375 h -0.16406 q -1.25781,1.066406 -1.42188,1.585937 l -0.98437,0.21875 -0.38281,0.601563 -1.14844,0.4375 -0.6836,-0.21875 -0.65625,0.109375 q -1.01171,-0.628907 -1.75,-0.710938 l -0.76562,-0.601562 q -0.82031,-1.8593753 -0.82031,-2.6796878 0,-0.4375 0.21875,-1.09375 h 0.16406 q 0.13672,-0.3828125 0.38281,-1.3945312 l -0.16406,-0.4375 v -0.21875 q 0,-0.2734375 0.32812,-0.7929688 0.35547,-0.5195312 0.38282,-0.7929687 1.64062,-1.1484375 1.96875,-3.390625 0.57422,-0.38281252 0.90234,-0.82031252 0.98438,-0.328125 1.42188,-0.546875 h 0.21875 q 0.60156,-0.71093748 1.36718,-1.20312498 l 0.21875,-0.4375 1.80469,-0.6015625 1.58594,0.21875 0.60156,0.3828125 h 0.76563 l 0.82031,-0.765625 h 0.76562 l 1.03907,0.3828125 0.79296,-0.21875 0.4375,0.21875 0.16407,0.3828125 1.42187,-0.1640625 0.60156,-0.4375 0.38282,0.21875 0.60156,-0.21875 q 0.24609,0.2460937 0.38281,0.8203125 z m -6.20703,0.82031248 -1.20312,-0.43749998 q -1.09375,0.3007812 -1.96875,0.21875 l -1.42188,0.60156248 -0.76562,0.765625 q -0.082,0.4375 -0.98438,2.62500002 -0.875,2.1875 -1.03906,2.296875 l -0.10938,0.6015625 -0.54687,0.4921875 -0.10938,0.3828125 0.10938,0.3828125 -0.60156,0.8476562 v 0.7109375 l -0.32813,0.328125 v 0.546875 l -0.21875,0.3828125 v 0.2187498 l -0.57422,0.21875 v 0.765625 l 0.16406,0.21875 0.84766,0.382813 q 0.65625,-0.21875 1.96875,-1.203125 h 0.21875 l 0.60156,-0.382813 q 0.30078,-0.4374998 0.98438,-1.2031248 V 8.6831207 l 0.38281,-0.21875 q 0.60156,-1.09375 1.80469,-3.1992187 v -0.21875 l 0.60156,-0.6015625 q 0.082,-0.9023438 0.71094,-1.96875 -0.0547,-0.1914063 0.16406,-1.0390625 l 0.4375,-0.1640625 v -0.21875 l -0.10937,-0.21875002 q 0.16406,-0.3828125 0.60156,-1.1484375 h 0.16406 z"
           style="font-style:normal;font-variant:normal;font-weight:normal;font-stretch:normal;font-size:56px;font-family:'Blackadder ITC';-inkscape-font-specification:'Blackadder ITC, Normal';font-variant-ligatures:normal;font-variant-caps:normal;font-variant-numeric:normal;font-variant-east-asian:normal;writing-mode:lr-tb;fill:#666666;stroke-width:0.264583"
           id="path105" />
        <path
           d="m -112.42135,-17.539536 -0.16406,0.382813 -1.03906,0.601562 -0.76563,1.230469 -0.21875,1.367188 -0.38281,0.601562 -0.21875,1.039063 -0.38281,0.382812 -0.21875,0.984375 -0.60157,0.601563 v 0.3828122 l -0.76562,0.4375 -0.21875,0.3828125 -0.60156,0.21875 -0.19141,0.3828125 q -0.49219,0.4921875 -1.42187,0.6015625 l -0.21875,0.1640625 v 0.21875 q -0.875,0 -2.21485,0.6015625 -1.09375,0.4921875 -2.16015,0.984375 h -2.57032 l -0.82031,-1.203125 h -0.16406 l 0.16406,-0.984375 -0.38281,-1.5859375 q 0.32812,-0.3281252 1.44922,-0.7109372 1.14843,-0.382813 1.55859,-0.273438 l 0.38281,0.601563 -0.16406,1.2578122 0.38281,1.3125 h 0.54688 q 1.33984,-0.6015625 2.67969,-1.2304687 2.05078,-1.0117188 2.35156,-1.7773435 h 0.16406 q 0.51953,-1.257813 1.72266,-3.664063 0,-1.3125 -0.21875,-3.855469 -1.06641,-0.875 -2.65235,-0.984375 l -2.24218,0.328125 -0.38282,0.21875 -0.21875,0.382813 q -1.33984,0.355469 -2.35156,1.804687 l -0.4375,0.164063 v 0.21875 q -1.23047,0.984375 -1.58594,2.214844 l -0.98437,0.382812 q -0.60156,0.464844 -1.83203,1.421875 -0.38282,0.464844 -1.20313,1.367188 l -3.17187,3.3906247 q -0.54688,0.7109375 -1.58594,1.8046875 h -1.20313 l -0.82031,0.3828125 -0.38281,1.0664063 0.21875,0.6015625 -0.82031,0.3828125 q -0.32813,0.9570312 -1.23047,1.7773437 -0.79297,0.68359378 -1.58594,1.39453128 -0.4375,0.90234372 -1.96875,2.40625002 h -0.4375 q -1.14844,1.4765625 -2.35156,3.171875 l -1.25781,0.2734375 -0.76563,0.7109375 -0.60156,1.4492187 q -0.41016,0.3554688 -0.98438,1.203125 -0.57422,0.8476563 -0.98437,1.2031253 l -0.21875,0.601562 h -0.21875 l -0.16406,0.601563 -0.82032,0.601562 -0.41015,1.75 q -0.32813,0.21875 -2.40625,0.21875 -0.51953,-0.136719 -0.60157,-0.21875 l 0.60157,-0.984375 v -0.601562 q -0.62891,-0.300782 -1.58594,-1.203125 v -0.765625 q 1.69531,-0.9843753 2.78906,-0.9843753 0.76563,-0.4921875 0.98438,-1.421875 V 7.8628082 q 1.23047,-2.953125 1.23047,-3.8554687 0,-0.054687 -0.16407,-2.3515625 l 0.54688,-1.20312502 q 0.16406,-1.1484375 0.21875,-3.00781248 l 0.38281,-0.1640625 q 0.73828,-1.5039063 0.82031,-2.6523438 l -0.21875,-1.203125 -0.60156,-0.6015625 q 0.73828,-1.5039062 0.92969,-3.3359377 l 0.98437,-1.148437 0.875,-0.492188 q -0.16406,-1.148437 -0.16406,-1.203125 0,-0.164062 0.16406,-0.984375 l 0.92969,-0.929687 0.49219,-1.339844 1.36719,-0.929688 -0.38282,-0.984375 h -0.16406 v -1.640625 q 0.21875,-0.765625 0.54688,-1.75 -1.64063,0.246094 -4.15625,0.984375 v 0.21875 l -1.20313,0.382813 -1.99609,-0.21875 q -1.09375,0.4375 -1.53125,0.4375 -2.67969,0 -4.04688,-0.4375 l -0.4375,0.21875 h -2.1875 q -1.01172,0 -2.78906,-0.984375 l -0.62891,-1.367188 0.16407,-1.804687 q 0.68359,-0.902344 2.48828,-1.640625 l 0.16406,-0.21875 q 2.02344,-0.683594 4.21094,-0.765625 l 0.38281,-0.410156 q 1.50391,0.628906 3.00781,0.628906 0.27344,0 0.79297,-0.08203 0.51953,-0.08203 0.82031,-0.08203 0.21875,0 2.1875,0.328125 l 0.98438,-0.519531 q 0.82031,0.710938 3.77344,0.902344 l 0.60156,0.4375 q 0.79297,-0.164063 2.02344,0.382812 l 1.20312,1.203125 q 0.84766,-0.109375 1.77734,-0.574218 1.61329,-0.820313 1.64063,-0.847657 0.82031,-0.355468 2.26953,-0.492187 1.91406,-0.191406 2.32422,-0.273438 0.57422,-0.21875 1.75,-0.601562 -0.082,0 1.03906,-0.246094 0.35547,0 1.01172,0.109375 0.79297,0.109375 0.98438,0.136719 l 0.82031,0.601562 0.76562,1.804688 -0.38281,0.765625 q -1.96875,-0.21875 -1.64062,-0.21875 0.41015,0 -1.5586,0.21875 l -1.20312,-0.984375 q -0.875,-0.109375 -1.36719,-0.109375 -0.35547,0 -1.28516,0.191406 -0.90234,0.191406 -1.33984,0.136719 l -0.21875,0.164062 q -2.13281,0.628907 -4.59375,0.984375 v 0.4375 q 0,0.65625 0.57422,1.75 0.60156,1.066407 0.6289,1.640625 -0.46484,0.65625 -1.99609,2.351563 -1.12109,2.953125 -0.98437,5.058594 -0.57422,0.875 -1.20313,2.1875 l 0.38281,0.7656247 v 1.5859375 l -0.38281,0.8203125 v 0.21875 h -0.21875 q -0.41016,1.2578125 -0.98437,1.96875 l 0.16406,1.2304688 -0.16406,0.21875 v 0.765625 l -0.60157,1.203125 h -0.21875 q -1.61328,3.4453125 -2.95312,5.359375 l -0.21875,1.0390625 q 0.30078,-0.4101563 0.76562,-1.0390625 l 1.20313,-0.546875 v -0.21875 q 0.60156,-0.3554688 1.17578,-1.0390625 0.98437,-1.1210938 1.01172,-1.1484375 0.38281,-0.24609377 1.03906,-0.82031252 0.49219,-0.84765625 1.75,-1.96874998 0.92969,-1.0664063 1.06641,-1.8046875 h 0.16406 q 0.35547,-0.765625 2.07812,-2.0507813 1.88672,-1.3945312 2.29688,-1.96875 0.32812,-0.054687 0.65625,-0.4101562 0.51953,-0.5742188 0.54687,-0.5742188 0.57422,-0.3828125 1.14844,-0.765625 0.6836,-0.4648437 0.875,-1.0390622 l 0.38281,-0.21875 0.38282,-0.765625 q 0.30078,-0.191407 0.82031,-0.601563 l 1.83203,-1.804687 0.16406,-0.601563 q 0.2461,-0.21875 0.82032,-0.601562 0.57421,-0.382813 0.82031,-0.601563 h 0.38281 l 0.76563,-0.410156 0.4375,-1.585938 0.76562,-0.382812 v -0.21875 q 1.3125,-1.339844 3.00781,-1.941406 0.82032,-0.300782 3.44532,-0.792969 0.32812,-0.109375 0.95703,-0.273438 0.92968,0.02734 2.78906,-0.164062 l 0.98437,0.382812 1.64063,1.96875 v 1.039063 z m -32.78515,-5.578125 -0.16407,-0.820312 -0.60156,-0.601563 q -2.07812,-0.765625 -3.39062,-0.765625 l -0.38282,0.164063 q -0.98437,-0.164063 -1.03906,-0.164063 -0.35547,0 -1.09375,0.08203 -0.73828,0.08203 -1.12109,0.08203 -0.82032,0 -2.57032,-0.328125 -1.72265,-0.328125 -2.57031,-0.328125 -0.68359,0.355469 -2.625,1.09375 l -1.09375,0.984375 0.71094,1.203125 0.60156,0.164062 0.38281,0.4375 q 1.3125,0.164063 1.42188,0.164063 0.19141,0 0.60156,-0.08203 0.41016,-0.08203 0.60156,-0.08203 0.30079,0 0.875,0.08203 0.57422,0.08203 0.875,0.08203 h 2.02344 q 0.27344,0 0.82031,-0.08203 0.57422,-0.08203 0.79297,-0.08203 2.26953,-0.136718 2.92578,-0.246093 1.42188,-0.21875 2.8711,-0.957032 z"
           style="font-style:normal;font-variant:normal;font-weight:normal;font-stretch:normal;font-size:56px;font-family:'Blackadder ITC';-inkscape-font-specification:'Blackadder ITC, Normal';font-variant-ligatures:normal;font-variant-caps:normal;font-variant-numeric:normal;font-variant-east-asian:normal;writing-mode:lr-tb;fill:#666666;stroke-width:0.264583"
           id="path107" />
        <path
           d="m -99.73307,-1.734848 -0.21875,0.3828125 -0.38281,0.21875 v 0.21874998 l -1.58594,0.1640625 -0.21875,0.4375 v 0.546875 l -0.16406,0.21875 V 1.0542145 h -0.21875 v 0.21875 l -0.32813,0.3828125 -0.10937,0.4921875 -0.4375,0.328125 0.16406,0.3828125 q -0.24609,0.4375 -0.68359,1.96875 l -0.82032,0.984375 h 0.21875 v 0.21875 q -0.90234,0.6015625 -1.42187,1.2304687 l -0.10938,0.328125 0.10938,0.2734375 -0.21875,1.8046875 h -0.16406 v 0.3828123 l -0.38282,0.601563 0.16407,0.382812 0.60156,0.164063 q 0.71094,-0.792969 2.21484,-1.3671878 l 0.32813,0.6015628 -0.51953,1.039062 q -1.20313,0.765625 -2.02344,1.96875 -1.64063,0.464844 -2.1875,0.382813 v -0.164063 h -0.60156 q -0.51954,-0.628906 -1.20313,-1.039062 0.0547,-0.628907 -0.16406,-1.75 l -0.4375,-0.4375 h -0.16406 q -1.25782,1.066406 -1.42188,1.585937 l -0.98437,0.21875 -0.38282,0.601563 -1.14843,0.4375 -0.6836,-0.21875 -0.65625,0.109375 q -1.01172,-0.628907 -1.75,-0.710938 l -0.76562,-0.601562 q -0.82032,-1.8593753 -0.82032,-2.6796878 0,-0.4375 0.21875,-1.09375 h 0.16407 q 0.13672,-0.3828125 0.38281,-1.3945312 l -0.16406,-0.4375 v -0.21875 q 0,-0.2734375 0.32812,-0.7929688 0.35547,-0.5195312 0.38281,-0.7929687 1.64063,-1.1484375 1.96875,-3.390625 0.57422,-0.38281252 0.90235,-0.82031252 0.98437,-0.328125 1.42187,-0.546875 h 0.21875 q 0.60157,-0.71093748 1.36719,-1.20312498 l 0.21875,-0.4375 1.80469,-0.6015625 1.58594,0.21875 0.60156,0.3828125 h 0.76562 l 0.82032,-0.765625 h 0.76562 l 1.03906,0.3828125 0.79297,-0.21875 0.4375,0.21875 0.16406,0.3828125 1.42188,-0.1640625 0.60156,-0.4375 0.38281,0.21875 0.60157,-0.21875 q 0.246091,0.2460937 0.38281,0.8203125 z m -6.20703,0.82031248 -1.20313,-0.43749998 q -1.09375,0.3007812 -1.96875,0.21875 l -1.42187,0.60156248 -0.76563,0.765625 q -0.082,0.4375 -0.98437,2.62500002 -0.875,2.1875 -1.03906,2.296875 l -0.10938,0.6015625 -0.54687,0.4921875 -0.10938,0.3828125 0.10938,0.3828125 -0.60157,0.8476562 v 0.7109375 l -0.32812,0.328125 v 0.546875 l -0.21875,0.3828125 v 0.2187498 l -0.57422,0.21875 v 0.765625 l 0.16406,0.21875 0.84766,0.382813 q 0.65625,-0.21875 1.96875,-1.203125 h 0.21875 l 0.60156,-0.382813 q 0.30078,-0.4374998 0.98438,-1.2031248 V 8.6831207 l 0.38281,-0.21875 q 0.60156,-1.09375 1.80469,-3.1992187 v -0.21875 l 0.60156,-0.6015625 q 0.082,-0.9023438 0.71094,-1.96875 -0.0547,-0.1914063 0.16406,-1.0390625 l 0.4375,-0.1640625 v -0.21875 l -0.10938,-0.21875002 q 0.16407,-0.3828125 0.60157,-1.1484375 h 0.16406 z"
           style="font-style:normal;font-variant:normal;font-weight:normal;font-stretch:normal;font-size:56px;font-family:'Blackadder ITC';-inkscape-font-specification:'Blackadder ITC, Normal';font-variant-ligatures:normal;font-variant-caps:normal;font-variant-numeric:normal;font-variant-east-asian:normal;writing-mode:lr-tb;fill:#666666;stroke-width:0.264583"
           id="path109" />
      </g>
      <path
         d="m 58.055188,70.22582 -0.01063,1.98e-4 z m -0.01465,-2.41e-4 a 0.17418144,0.19347681 47.022478 0 0 -0.02976,-9.68e-4 z m -0.03003,-7.12e-4 c -0.006,0.0019 -0.01063,1.98e-4 -0.01441,1.2e-5 z m 0.05691,-0.0207 c -0.07841,0.02084 -0.08365,0.02295 -0.08743,0.02277 -0.482249,-0.01047 -0.131809,0.535367 0.313846,0.942179 0.226509,0.207621 0.683742,0.156598 0.646693,0.435586 -0.0372,0.286546 0.0377,0.370538 0.21413,0.248397 0.558704,-0.113346 0.558704,-0.113346 1.642786,-0.445705 0.412607,0.134412 0.573769,0.617771 0.979879,0.582043 0.138344,-0.01515 0.08173,-0.02116 0.235521,0.07724 0.40949,0.25511 0.145497,0.381137 0.317045,0.700843 0.189954,0.05164 0.291427,-0.06911 0.311064,-0.152841 0.04291,-0.20656 -0.16944,-0.390768 -0.36344,-0.45115 0.196856,-0.05729 0.31202,-0.04708 0.38652,0.02106 0.07265,0.06615 0.125356,0.161136 0.153746,0.323813 0.01567,0.09063 0.007,0.123784 -0.04484,0.20836 -0.01667,0.02902 -0.03515,0.05555 -0.05367,0.08259 -0.271116,0.374741 -0.825121,0.784179 -1.194145,1.00786 -0.241148,0.107471 -0.484222,0.216741 -0.72702,0.325754 l -0.254485,-0.14439 c 0.162516,-0.171758 0.325783,-0.343264 0.490155,-0.513035 0.01362,-0.02015 0.02013,-0.04847 0.0094,-0.06767 -0.02551,-0.05871 -0.03175,-0.0654 -0.05586,-0.07905 -0.468862,0.06559 -0.75502,0.777597 -1.251659,0.378527 0.03937,-0.06647 0.08066,-0.13145 0.11973,-0.194382 -1.201288,0.141356 -2.228922,-0.274586 -3.333016,-0.61633 l 0.107598,0.115123 c 1.212073,0.391124 1.897973,1.214848 2.793021,2.078777 0.593162,0.440603 1.063869,0.601898 1.820763,0.588146 0.05368,0.05744 0.05368,0.05744 0.07552,0.158531 -0.107876,0.110045 -0.170258,0.132604 -0.330199,0.186942 l -0.05368,-0.05744 -0.06409,0.05987 c -0.02899,-0.01558 -0.05798,-0.03116 -0.08512,-0.04477 -0.05204,0.02591 -0.104561,0.0513 -0.15638,0.07744 -0.01176,0.03372 -0.02335,0.06818 -0.03755,0.103705 0.168281,0.09461 0.346589,0.19608 0.394527,0.422111 -0.04972,0.03997 -0.09788,0.08215 -0.145986,0.123844 -0.45729,-0.216949 -0.635812,-0.648854 -0.940786,-0.975159 -0.866169,-0.371077 -1.494426,-1.264878 -2.215368,-1.853222 -0.536087,-0.317243 -1.10538,-0.429114 -1.547616,-0.843294 l -0.06382,0.05961 c 0.809837,1.045081 1.67591,2.053861 2.686317,2.940338 0.354663,-0.203765 0.375218,-0.298089 0.658586,-0.07263 -0.03767,0.08759 -0.07377,0.177412 -0.112015,0.268789 0.03596,0.05776 0.07022,0.117578 0.103976,0.177399 0.204502,-0.09596 0.247537,-0.11993 0.416215,-0.0095 -0.291953,0.282437 -0.479593,0.516617 -0.862128,0.697727 -1.119177,-0.544207 -1.86333,-1.457269 -2.82933,-2.152906 -0.835335,-0.42353 -1.599812,0.153763 -2.388068,0.608593 0.645322,1.666182 0.555893,3.256799 -0.273346,5.00844 -0.853286,1.395708 -2.009395,2.335114 -3.425063,3.147855 a 13.237789,14.704238 47.022478 0 1 -1.568195,0.591664 c -0.693445,0.101483 -0.693445,0.101483 -0.770496,0.147486 l -0.05368,-0.05744 c -2.110816,0.186391 -3.576929,-0.803984 -4.525213,-2.475134 -0.194806,-0.527058 -0.335606,-0.977039 -0.4331,-1.50086 -0.0072,-0.948107 -0.0072,-0.948107 -0.04434,-1.050176 l 0.06574,-0.06141 c -0.08616,-0.345212 0.09194,-0.857509 0.179219,-1.188048 -0.08978,-1.246539 0.09035,-1.904951 0.395875,-3.191041 l -3.042872,2.842346 c -0.105445,0.295111 -0.220873,0.533237 -0.117969,0.84565 -0.06368,0.04046 -0.12624,0.08268 -0.188529,0.12463 -0.411496,-0.132669 -1.326741,-1.37653 -1.647221,-1.731013 -0.03588,-0.178405 0.02195,-0.209699 0.116727,-0.31446 0.397921,0.134684 0.661778,0.156247 1.069955,-0.0057 1.288639,-1.193964 2.577495,-2.387695 3.865678,-3.582145 -0.521053,-0.54923 -1.043722,-1.097419 -1.565311,-1.643366 -0.965744,-0.120402 -1.932226,-0.241042 -2.896858,-0.3597 -0.901829,0.83496 -1.800546,1.67215 -2.702448,2.510889 -0.112015,0.268789 -0.0812,0.488089 -0.232153,0.78908 -0.638945,-0.256405 -1.404093,-1.385424 -1.869283,-1.902442 0.01232,-0.142274 0.02225,-0.154799 0.09657,-0.253894 1.157138,0.184607 1.77161,-0.76266 2.567999,-1.515837 -1.745042,-0.475706 -3.401018,-1.007714 -5.037294,-1.708832 0.008,0.07415 0.008,0.07415 -0.09435,0.225394 0.118965,0.232027 0.249396,0.375437 0.22303,0.674125 -0.04779,0.03817 -0.09592,0.07984 -0.144295,0.121795 -2.946838,-3.18435 -2.946838,-3.18435 -3.920385,-4.292136 -0.850161,-1.131222 -1.632473,-2.286873 -2.403568,-3.446509 a 0.1535101,0.17051556 47.022478 0 0 8.3e-4,-0.02998 0.07218025,0.08017619 47.022478 0 0 -0.02835,5.25e-4 l -0.0027,0.02851 c 0.06249,0.265307 0.03065,0.262119 -0.124321,0.551097 l -1.792839,-1.918204 c 0.313765,-0.146089 0.800003,-0.09993 0.995413,-0.31863 -1.459217,-2.909646 -2.531207,-6.089646 -5.396775,-7.829847 L 17.79326,53.93598 c 0.699015,0.654737 1.913008,1.642723 1.976186,2.743931 -0.100297,0.107129 -0.100297,0.107129 -0.208215,0.138845 -0.204809,-0.20424 -0.389117,-0.467046 -0.959963,-1.077813 -0.219247,-0.122124 -0.525982,-0.24414 -1.222494,-0.600724 -0.274368,-0.142511 -0.468538,-0.268123 -0.700864,-0.469843 -1.06619,-0.919697 -2.162737,-2.236262 -1.298081,-3.573497 0.300307,-0.463685 0.619533,-0.69324 1.133872,-0.869484 0.929475,-0.319174 1.711657,-0.02638 2.702905,0.31921 1.918527,-1.7791 3.837288,-3.557946 5.757705,-5.335572 1.355108,1.457615 2.708078,2.916764 4.062888,4.377901 0.606999,1.162672 0.08452,2.235929 -0.933257,3.186627 -1.266336,0.872187 -2.202408,0.814958 -3.292771,-0.05619 l -2.681352,-2.834146 -1.553051,1.45074 c 2.505584,2.125148 4.056253,4.740698 5.524409,7.710626 0.971305,-0.903953 1.940681,-1.806108 2.911549,-2.706672 1.188669,-5.164143 1.152314,-5.424646 1.39366,-5.578212 0.07101,0.04125 0.07101,0.04125 1.077803,1.11845 -0.69198,3.833967 -0.69198,3.833967 -0.744766,3.909242 l 0.05553,0.05942 c -0.0169,0.02877 -0.03381,0.05754 -0.05236,0.08786 0.03527,0.04218 0.0727,0.08604 0.107712,0.131248 l 4.182665,-0.258473 c 0.03533,-0.01677 0.07224,-0.03131 0.109188,-0.04635 0.363048,0.376861 0.645345,0.678902 0.94054,1.138619 -0.203264,0.105007 -0.203264,0.105007 -0.505064,0.171289 -1.86964,0.183692 -3.739282,0.367383 -5.607299,0.552808 -1.040525,0.962196 -2.08103,1.924409 -3.11988,2.887844 0.245147,0.421603 0.489712,0.847 0.734554,1.272135 1.025212,1.500987 2.132107,2.79444 3.713765,3.778898 a 138.91139,154.29964 47.022478 0 1 1.068177,0.528779 L 38.161405,60.6809 36.229972,58.61439 c 0.282732,-0.342467 0.428109,-0.517679 0.805007,-0.712538 l 5.25142,5.572377 c -0.261237,0.260727 -0.521099,0.522925 -0.780953,0.785131 l -2.311612,-2.473276 -5.276758,4.929003 c 1.087375,0.350864 2.200608,0.648363 3.324429,0.925765 2.317836,0.342709 2.317836,0.342709 2.451993,0.33796 1.019593,-0.94931 2.037439,-1.896628 3.056793,-2.842334 0.194603,-0.332022 0.109467,-0.399959 0.04864,-0.725238 0.04333,-0.0275 0.08498,-0.05296 0.126397,-0.07865 l 1.798161,1.877059 c -0.344544,0.171593 -0.420695,-0.003 -0.706403,0.08762 -0.705915,0.663104 -1.414231,1.3275 -2.120438,1.99415 1.688862,0.377012 3.101647,0.943741 3.878421,2.548806 l 1.184153,-1.134865 c 0.05187,-0.251556 -0.0602,-0.849404 0.179768,-0.864423 l 1.772476,1.84958 c -0.475327,0.198695 -0.739977,-0.04147 -1.185246,0.09623 l -1.747279,1.632118 -0.01961,1.584288 c 1.039262,-0.512616 1.801429,-0.777065 2.894812,-0.971579 0.211686,0.110175 0.684369,-0.01417 0.934833,-0.01024 0.75306,0.01302 1.805928,0.409099 2.340787,0.612022 1.296686,-1.018322 0.250435,-1.309754 0.700985,-2.767021 0.468365,-1.026417 1.318718,-1.702014 2.320851,-1.628125 0.311563,0.02244 0.315263,0.08483 0.524849,0.277657 1.375734,1.277904 1.520315,-0.432862 2.429225,0.539613 0.01202,0.03932 0.02461,0.08366 -0.03816,0.148798 z"
         id="path1194"
         style="clip-rule:evenodd;fill-rule:evenodd;stroke-width:0.357152" />
      <path
         d="m 47.719436,87.055951 c -0.0997,-0.168412 -0.199148,-0.333804 -0.299153,-0.498683 0.0411,-0.10377 0.0411,-0.10377 0.156046,-0.237115 0.071,0.04126 0.160153,0.0396 0.601642,0.255081 l 0.06574,-0.06141 0.05369,0.05744 7.624486,-7.150739 c 0.199753,-0.411955 0.05395,-0.602683 0.168597,-0.919372 a 0.29143198,0.32371607 47.022478 0 0 -0.05881,-0.0012 c 0.102224,-0.146961 0.102224,-0.146961 0.181198,-0.194766 l 1.523489,1.630035 c -0.04487,0.103587 -0.08928,0.20767 -0.132529,0.312991 -0.836512,3.216824 -1.671171,6.435628 -2.507988,9.655983 0.01174,0.02799 0.02532,0.05796 0.03698,0.08973 l 5.71363,-5.366745 c 0.214777,-0.419033 0.214777,-0.419033 0.225019,-0.49352 -0.0469,-0.182484 -0.0986,-0.3271 -0.06297,-0.487436 0.186543,-0.03745 0.177526,-0.03552 0.337636,0.0542 0.522011,0.558539 1.207601,1.117307 1.549663,1.821213 -0.06221,0.03818 -0.126166,0.0789 -0.188454,0.120852 -0.174624,-0.06225 -0.348091,-0.123265 -0.520588,-0.183793 -0.03009,0.01466 -0.0616,0.03111 -0.0939,0.04783 l -0.08512,-0.04477 c -0.04627,0.0205 -0.09255,0.041 -0.139355,0.06479 -0.836256,0.725959 -0.836256,0.725959 -8.049489,7.407687 -0.441169,0.157513 -0.675194,-0.229038 -0.839361,-0.575577 l 0.115274,-0.653936 c 0.851686,-3.289891 1.704762,-6.578298 2.556374,-9.864409 -0.01387,-0.02971 -0.02532,-0.05796 -0.03752,-0.08645 -2.09431,1.972495 -4.189975,3.946293 -6.284075,5.922316 l 0.05553,0.05942 -0.06574,0.06141 c 0.03728,0.144634 0.0726,0.291568 0.109535,0.440234 -0.141876,0.155254 -0.194539,0.188213 -0.413161,0.140624 -0.431644,-0.443087 -0.863868,-0.882387 -1.296325,-1.321933 z"
         id="path1196"
         style="clip-rule:evenodd;fill-rule:evenodd;stroke-width:0.357152" />
      <path
         d="m 45.12019,81.42216 c -0.227376,-0.530484 -0.387997,-0.935521 -0.47895,-1.488174 0.06161,-0.03111 0.799709,0.04364 0.86903,0.08693 l 0.06382,-0.05961 0.05415,0.05793 c 0.607298,-0.119786 1.190834,-0.210423 1.79801,-0.346325 1.732893,-0.741792 3.121403,-1.778183 4.63832,-2.887218 0.158088,0.297035 0.288617,0.962043 0.150269,1.33055 0.124682,0.312011 -0.207064,1.033671 -0.342416,1.382226 -0.675929,1.157698 -1.638672,1.942916 -2.838543,2.543883 -0.585848,0.216607 -1.419214,0.517882 -2.009763,0.379959 l -0.06382,0.05961 C 46.04403,82.239717 45.754993,82.062219 45.12019,81.42216 Z"
         fill="#ffffff"
         id="path1198"
         style="clip-rule:evenodd;fill-rule:evenodd;stroke-width:0.357152" />
      <path
         d="m 43.352341,76.806356 c 0.02066,-0.238638 0.127429,-0.45847 0.148285,-0.684771 0.298828,-0.48456 0.665199,-4.42987 0.551901,-4.601805 l 0.03081,-0.02878 0.03301,-0.03083 0.028,0.02996 a 0.30498694,0.33877261 47.022478 0 1 0.06054,-0.0014 l 0.05368,0.05744 c 0.01966,-0.0021 0.03923,-4.74e-4 0.05881,0.0012 0.29636,0.317191 0.940085,0.422597 1.214285,0.715975 l 0.02754,0.02946 c -0.01664,0.192224 0.0538,0.426908 0.03196,0.679169 -0.0015,0.01765 -0.0053,0.03737 -0.0069,0.05881 l -0.03301,0.03083 c -0.823478,0.455733 -1.552448,1.770563 -1.630304,2.666849 -0.03327,0.162309 -0.335245,0.908101 -0.541613,1.10736 z m -4.073403,-6.11073 0.971599,-0.907499 1.006412,1.076626 -0.03301,0.03083 c -0.417512,-0.03106 -1.577512,0.126907 -1.85819,-0.173402 -0.01912,-0.0011 -0.03904,0.0012 -0.05869,0.0034 z"
         fill="#b9cd4d"
         id="path1200"
         style="clip-rule:evenodd;fill-rule:evenodd;stroke-width:0.357152" />
      <path
         d="m 46.570313,76.032803 a 10.210286,11.341355 47.022478 0 1 -0.05738,-0.178261 c 1.092079,-1.081781 2.281751,-1.176578 3.604986,-0.942153 -0.663881,0.653504 -1.844831,1.135249 -2.662275,1.56216 -0.439089,-0.07675 -0.590057,-0.1611 -0.885333,-0.441746 z"
         fill="#ffffff"
         id="path1202"
         style="clip-rule:evenodd;fill-rule:evenodd;stroke-width:0.357152" />
      <path
         d="m 41.47508,68.700334 0.03301,-0.03083 0.02569,0.02748 c 0.963916,-0.0337 1.605352,0.380822 1.369101,1.336959 -0.0015,0.01765 -0.0012,0.0373 -0.0033,0.05824 l -0.06602,0.06167 z"
         fill="#b9cd4d"
         id="path1204"
         style="clip-rule:evenodd;fill-rule:evenodd;stroke-width:0.357152" />
      <path
         d="m 23.101975,48.976139 1.877118,-1.753391 c 0.929357,1.002068 1.856553,2.005688 2.783709,3.00981 0.390839,0.923127 -0.928667,2.181635 -1.87025,1.69459 -0.930876,-0.984419 -1.86126,-1.96883 -2.79057,-2.951001 z"
         fill="#ffffff"
         id="path1206"
         style="clip-rule:evenodd;fill-rule:evenodd;stroke-width:0.357152" />
      <path
         d="m 62.273701,88.034609 c 0.0011,-0.01035 0.0021,-0.02094 0.0046,-0.0298 0.0629,-0.177463 0.09928,-0.410851 0.236458,-0.508843 0.309611,0.04792 0.422144,-0.08085 0.566529,-0.349733 -0.104185,-0.271336 -0.303857,-0.441422 -0.480605,-0.64266 l -0.93855,0.876706 0.163081,0.174587 0.356767,-0.333265 c 0.02183,0.03108 0.04406,0.06643 0.06577,0.101793 -0.05882,0.162528 -0.119064,0.326845 -0.177962,0.493153 l 0.178098,0.190703 -0.0025,0.02876 c -0.453823,-0.154806 -0.678985,-0.418867 -0.637735,-0.892366 0.775568,-1.669045 2.516942,0.05795 0.938202,0.85608 -0.09168,0.01051 -0.182005,0.02301 -0.272293,0.03501 z"
         fill="#ffffff"
         id="path1210"
         style="clip-rule:evenodd;fill-rule:evenodd;stroke-width:0.357152" />
      <path
         d="m 62.24557,88.035382 0.0025,-0.02876 a 0.137583,0.1528241 47.022478 0 1 0.03051,-0.0021 c -0.0025,0.0089 -0.0034,0.01945 -0.0046,0.0298 a 0.08404085,0.09335068 47.022478 0 0 -0.02841,10e-4 z"
         fill="#ffffff"
         id="path1212"
         style="clip-rule:evenodd;fill-rule:evenodd;stroke-width:0.357152" />
      <path
         d="m 58.566718,76.54425 c 0.01965,-0.0021 0.0393,-0.0043 0.05916,-0.0029 l -0.03301,0.03083 z"
         fill="#aec44b"
         id="path1218"
         style="clip-rule:evenodd;fill-rule:evenodd;stroke-width:0.357152" />
      <path
         d="m 58.592865,76.572226 0.03301,-0.03083 0.02754,0.02946 -0.03301,0.03083 z"
         fill="#5f7643"
         id="path1220"
         style="clip-rule:evenodd;fill-rule:evenodd;stroke-width:0.357152" />
      <path
         d="m 58.6204,76.601687 0.03301,-0.03083 0.028,0.02996 a 0.3320969,0.36888574 47.022478 0 0 -0.06101,8.77e-4 z"
         fill="#343f2e"
         id="path1222"
         style="clip-rule:evenodd;fill-rule:evenodd;stroke-width:0.357152" />
      <path
         d="m 58.707323,76.628537 a 0.3320969,0.36888574 47.022478 0 1 0.06101,-8.77e-4 l -0.03301,0.03083 z"
         fill="#748e49"
         id="path1224"
         style="clip-rule:evenodd;fill-rule:evenodd;stroke-width:0.357152" />
      <path
         d="m 58.735322,76.658494 0.03301,-0.03083 0.02753,0.02946 a 0.32633603,0.3624867 47.022478 0 0 -0.06054,0.0014 z"
         fill="#343f2e"
         id="path1226"
         style="clip-rule:evenodd;fill-rule:evenodd;stroke-width:0.357152" />
      <path
         d="m 58.880358,76.685782 0.03301,-0.03083 0.028,0.02996 a 0.3571736,0.39674037 47.022478 0 0 -0.06101,8.77e-4 z"
         fill="#4c5f3b"
         id="path1228"
         style="clip-rule:evenodd;fill-rule:evenodd;stroke-width:0.357152" />
      <path
         d="m 58.913367,76.654948 0.03301,-0.03083 -0.005,0.06079 z"
         fill="#2b372a"
         id="path1230"
         style="clip-rule:evenodd;fill-rule:evenodd;stroke-width:0.357152" />
      <path
         d="m 56.811445,72.136495 c 1.012926,-0.109158 1.999486,0.188417 3.074699,-0.149571 0.05547,-0.04208 0.335362,-0.126844 0.324052,0.02423 -0.04438,0.512593 0.689907,0.637276 0.845446,0.321341 a 1.0145899,1.1269836 47.022478 0 0 0.06775,-0.18385 c 0.01565,-0.06099 0.0188,-0.135341 0.07299,-0.185961 0.131894,0.141118 0.348393,0.178164 0.477279,0.316064 -0.239364,0.478172 -0.172386,0.484235 0.04752,0.727239 0.02129,0.02278 0.180706,0.05332 0.301587,0.03547 -0.05419,0.05062 -0.245554,0.386105 -0.349911,0.27445 -0.288673,-0.02111 -1.04475,-0.717602 -1.419127,-0.367899 -0.92474,0.611994 -1.833849,0.225845 -2.756851,-0.128312 -0.667541,-0.256131 -1.043469,-0.709065 -0.685429,-0.683201 z"
         fill="#b9cd4d"
         id="path1232"
         style="clip-rule:evenodd;fill-rule:evenodd;stroke-width:0.357152" />
      <path
         d="m 57.431537,71.828084 0.03301,-0.03083 0.02754,0.02946 a 0.38089481,0.42308936 47.022478 0 0 -0.06054,0.0014 z"
         fill="#343f2e"
         id="path1234"
         style="clip-rule:evenodd;fill-rule:evenodd;stroke-width:0.357152" />
      <path
         d="m 57.449113,71.648437 -0.03301,0.03083 c -0.0052,-0.02484 -0.0052,-0.02484 0.03301,-0.03083 z"
         fill="#232d24"
         id="path1236"
         style="clip-rule:evenodd;fill-rule:evenodd;stroke-width:0.357152" />
      <path
         d="m 58.545558,71.00682 c 0.385284,-0.04642 0.488866,0.05669 0.650316,0.373309 -0.02505,0.05865 -0.04964,0.11778 -0.07423,0.176919 -0.125381,0.110609 -0.125163,0.204556 -0.167141,0.01191 -0.21804,-0.159421 -0.80796,-0.526544 -0.408949,-0.562134 z"
         id="path1238"
         style="clip-rule:evenodd;fill-rule:evenodd;stroke-width:0.357152" />
      <path
         d="m 54.412285,71.124097 c -0.17651,0.161195 -0.455065,0.189504 -0.711018,0.164268 -0.154319,-0.01351 -0.322662,-0.02274 -0.394162,-0.09924 -0.220524,-0.235933 -0.304206,0.692694 -0.293483,0.770318 0.0318,0.251771 0.105196,0.516625 0.172783,0.740535 0.06812,0.220625 0.129481,0.402589 -0.09785,0.59871 l -1.034358,0.891064 c -0.451106,1.43738 -1.212017,3.188262 -2.554526,3.418869 -0.146121,0.02612 -0.305606,0.01094 -0.451974,0.01365 -0.374861,0.01071 -0.776388,-0.08814 -1.141242,-0.280609 -0.192257,-0.100962 -0.507245,-0.294102 -0.636317,-0.353921 -0.116459,-0.05074 -0.273222,-0.09443 -0.38866,0.0037 l -0.321543,0.273933 c -0.174915,0.02288 -0.406482,0.28834 -0.58453,0.350318 -0.514416,0.180026 -0.835552,0.198055 -0.982947,0.709028 -0.04707,0.15526 -0.0172,0.280383 -0.02027,0.420976 -0.0054,0.208133 -0.0173,0.424697 0.08143,0.604206 0.09985,0.181255 0.476149,0.183107 0.864837,0.155768 0.283325,-0.01935 0.611153,0.0051 0.743539,-0.04348 0.640369,-0.236001 1.229958,-0.39072 1.823677,-0.765388 0.365631,-0.231168 0.7815,-0.481904 1.191101,-0.704064 0.98452,-0.540313 1.790092,-1.387855 2.715047,-2.022773 l 1.170838,-0.802922 c 0.513381,-0.352023 1.218622,-0.569329 1.805244,-0.718955 0.180296,-0.04414 0.368923,-0.07936 0.652276,0.0645 0.43544,0.221134 0.883741,0.661648 1.238962,0.97997 0.155783,0.139668 0.277761,0.316479 0.463083,0.421601 0.283826,0.155938 0.548536,0.497594 0.842451,0.645033 0.08215,0.04104 0.215396,0.125721 0.299718,0.118367 0.09712,-0.0091 0.165562,-0.122192 0.05078,-0.256574 -0.06818,-0.07682 -0.282728,-0.06932 -0.540332,-0.329503 L 57.208871,74.925512 55.737796,73.2391 c -0.01134,-0.01213 -0.09293,-0.138566 -0.140002,-0.149776 -0.04864,-0.01346 -0.108195,-0.02646 -0.167443,-0.04299 -0.09047,-0.02678 -0.134848,0.05362 -0.180096,-0.002 -0.07537,-0.09607 0.02968,-0.240568 0.239683,-0.233623 0.302075,0.01229 0.678591,-0.0088 0.794797,-0.346401 0.139604,-0.394724 -0.170602,-0.707331 -0.1871,-1.132914 -0.0071,-0.139902 -0.130426,-0.260273 -0.120524,-0.377571 0.01041,-0.117306 0.02526,-0.210012 0.18264,-0.135341 0.121432,0.06046 0.329415,0.274725 0.472236,0.330513 0.125632,0.05283 0.304156,0.07295 0.372007,0.04852 0.176584,-0.05968 0.967578,0.207257 0.905029,0.331069 -0.0021,0.0094 -0.05049,0.05457 -0.104777,0.06264 -0.191865,0.03176 -0.572166,0.04106 -0.344242,0.226491 0.298177,0.241302 0.733543,0.112859 0.971069,-0.119213 0.385455,-0.372579 0.413421,-0.164051 0.291365,0.0747 -0.0092,0.02108 -0.01593,0.09927 0.01906,0.08654 0.0019,-0.0018 0.186588,0.148922 0.310683,-0.0871 0.05727,-0.109611 -0.05828,-0.252542 -0.202178,-0.360195 -0.100325,-0.07647 -0.126379,-0.251533 -0.315142,-0.255595 -0.154468,-0.006 -0.01127,-0.155943 -0.0191,-0.27291 -0.02525,-0.307051 -0.193983,-0.685491 -0.536846,-0.655977 -0.09491,0.007 -0.190519,-0.21156 -0.263532,-0.247233 -0.179499,-0.09062 -0.347048,-0.06813 -0.589191,0.112149 -0.390407,0.289555 -0.836909,0.48822 -1.233747,0.06363 -0.370229,-0.396122 -0.620377,-0.26355 -0.944706,0.124266 -0.11847,0.267395 -0.340028,0.624599 -0.535438,0.8433 z"
         fill="#b9cd4d"
         id="path1240"
         style="clip-rule:evenodd;fill-rule:evenodd;stroke-width:0.357152" />
      <path
         d="m 57.04262,71.44339 c 0.12433,7.23e-4 0.123809,0.214054 0.05387,0.283098 -0.0685,0.06673 -0.144732,0.02761 -0.211605,-0.04394 -0.06734,-0.07205 -0.08058,-0.167254 -0.02997,-0.214531 0.05206,-0.04959 0.06273,-0.0266 0.187708,-0.02463 z"
         fill="#ffffff"
         id="path1242"
         style="clip-rule:evenodd;fill-rule:evenodd;stroke-width:0.357152" />
      <path
         d="m 56.824265,70.607239 c 0.306424,-0.286248 0.80439,-0.480566 1.093168,-0.171592 l 0.01,0.01065 c 0.08269,0.154621 0.241556,0.235298 0.272195,0.415817 0.02654,0.160697 -0.09874,0.419152 -0.20527,0.169011 -0.06411,-0.15018 -0.04993,-0.208873 -0.172333,-0.33984 -0.131892,-0.141116 -0.480964,-0.0019 -0.647187,-6.19e-4 -0.06224,0.0034 -0.581316,0.132151 -0.350526,-0.08343 z"
         id="path1244"
         style="clip-rule:evenodd;fill-rule:evenodd;stroke-width:0.357152" />
      <path
         d="m 26.255611,62.804397 c 0.513285,0.148416 1.234723,0.193751 1.705798,0.453011 0.810144,0.442883 0.485709,2.478848 1.19539,3.238163 0.773346,0.827365 2.49562,0.470634 3.423138,0.401842 0.610356,-0.04706 0.766766,1.376062 1.414433,2.069024 0.522033,0.558518 1.373941,0.334985 2.118779,0.02829 0.582055,-0.239958 1.417062,-1.173424 1.711048,-0.67641 l 0.550198,0.931007 -1.120912,1.070229 c -0.51113,0.01651 -1.857727,-0.46783 -2.442258,-0.549698 -1.105974,-0.153571 -2.94886,-1.041014 -4.288622,-1.934243 -0.776969,-0.516537 -1.301114,-1.027177 -1.632957,-1.416952 L 27.684277,65.001102 C 27.42814,64.70059 26.074871,63.058087 26.255612,62.804399 Z M 18.949017,50.84796 c -0.380328,-0.340776 -1.346657,-0.585836 -2.179441,-0.396394 -0.648942,0.145238 -1.234682,0.591283 -1.288111,1.225949 -0.04099,0.450071 0.120609,1.240932 0.420724,1.562036 0.349249,0.373518 0.919404,1.1783 2.337824,1.758777 -0.61835,-0.661455 -0.924417,-0.8722 -1.286679,-1.710728 -0.187305,-0.429728 -0.05383,-1.355249 0.987432,-1.461658 z m 1.374884,0.732901 0.999894,0.844359 c -0.129037,1.490357 1.137479,2.406095 2.270728,2.965909 0.146993,0.07183 -0.305066,1.216567 0.09463,2.262185 0.269733,0.715823 1.048718,1.249953 2.148698,1.67715 l -1.113243,1.039845 C 24.304353,59.772369 23.50666,57.889138 22.625437,56.10341 21.685106,54.203174 20.208618,52.973477 19.360421,52.438613 Z"
         fill="#b9cd4d"
         id="path1246"
         style="clip-rule:evenodd;fill-rule:evenodd;stroke-width:0.357152" />
      <path
         style="fill:#0055d4;stroke:none;stroke-width:0.409437;stroke-linecap:butt;stroke-linejoin:miter;stroke-miterlimit:4;stroke-dasharray:none;stroke-opacity:1"
         d="m 84.253601,138.74495 c 0.0266,-2.01994 9.944038,0.0543 9.76145,-10.14027 v -17.93801 0 h 23.065629 v 17.93801 c 0.0192,10.43424 9.77763,8.13996 9.79049,10.17678 z"
         id="path1389"
         sodipodi:nodetypes="cccccccc" />
      <path
         id="rect1467"
         style="fill:url(#linearGradient1475);fill-opacity:1;stroke:none;stroke-width:0.524554;stroke-linecap:round;stroke-linejoin:round;stroke-miterlimit:4;stroke-dasharray:none;stroke-opacity:1;paint-order:markers fill stroke"
         d="m 94.014567,110.67237 h 23.064683 v 3.84426 H 94.014567 Z" />
      <path
         id="rect1477"
         style="fill:#00112b;fill-opacity:0.385542;stroke:none;stroke-width:0.308901;stroke-linecap:round;stroke-linejoin:round;stroke-miterlimit:4;stroke-dasharray:none;stroke-opacity:1;paint-order:markers fill stroke"
         d="m 73.96796,138.64879 h 61.85979 v 0.71915 H 73.96796 Z" />
      <path
         d="m 80.900206,140.18648 v 1.5645 q -0.542252,-0.69778 -1.158929,-1.04301 -0.611362,-0.34521 -1.302466,-0.34521 -1.360944,0 -2.083945,1.15317 -0.723002,1.14584 -0.723002,3.31998 0,2.16681 0.723002,3.31999 0.723001,1.14582 2.083945,1.14582 0.691104,0 1.302466,-0.34521 0.616677,-0.34522 1.158929,-1.04301 v 1.54982 q -0.563516,0.52884 -1.196143,0.79327 -0.627309,0.26442 -1.329047,0.26442 -1.802187,0 -2.838844,-1.52043 -1.036656,-1.52779 -1.036656,-4.16467 0,-2.64422 1.036656,-4.16466 1.036657,-1.52778 2.838844,-1.52778 0.71237,0 1.33968,0.26442 0.632627,0.25708 1.18551,0.77859 z"
         style="font-size:12.7976px;line-height:1.25;font-family:sans-serif;letter-spacing:0.959823px;word-spacing:0.0415923px;writing-mode:lr-tb;stroke-width:0.319941"
         id="path114" />
      <path
         d="m 85.640124,143.02902 q -0.786799,0 -1.243991,0.85204 -0.457192,0.84467 -0.457192,2.32104 0,1.47636 0.451876,2.3284 0.457192,0.84468 1.249307,0.84468 0.781473,0 1.238666,-0.85203 0.457193,-0.85204 0.457193,-2.32105 0,-1.46167 -0.457193,-2.3137 -0.457193,-0.85938 -1.238666,-0.85938 z m 0,-1.14583 q 1.275886,0 2.004196,1.14583 0.728318,1.14584 0.728318,3.17308 0,2.01989 -0.728318,3.17308 -0.72831,1.14583 -2.004196,1.14583 -1.281204,0 -2.009522,-1.14583 -0.723001,-1.15319 -0.723001,-3.17308 0,-2.02724 0.723001,-3.17308 0.728318,-1.14583 2.009522,-1.14583 z"
         style="font-size:12.7976px;line-height:1.25;font-family:sans-serif;letter-spacing:0.959823px;word-spacing:0.0415923px;writing-mode:lr-tb;stroke-width:0.319941"
         id="path116" />
      <path
         d="m 94.728681,143.33018 v -4.45112 h 0.978175 V 150.308 h -0.978175 v -1.23397 q -0.308345,0.73451 -0.781481,1.09441 -0.467827,0.35257 -1.127031,0.35257 -1.079193,0 -1.759665,-1.1899 -0.675154,-1.1899 -0.675154,-3.12901 0,-1.9391 0.675154,-3.129 0.680472,-1.18991 1.759665,-1.18991 0.659204,0 1.127031,0.35991 0.473136,0.35256 0.781481,1.08708 z m -3.333253,2.87192 q 0,1.49105 0.441241,2.34308 0.446567,0.84469 1.222723,0.84469 0.776164,0 1.222722,-0.84469 0.446567,-0.85203 0.446567,-2.34308 0,-1.49106 -0.446567,-2.33574 -0.446558,-0.85202 -1.222722,-0.85202 -0.776156,0 -1.222723,0.85202 -0.441241,0.84468 -0.441241,2.33574 z"
         style="font-size:12.7976px;line-height:1.25;font-family:sans-serif;letter-spacing:0.959823px;word-spacing:0.0415923px;writing-mode:lr-tb;stroke-width:0.319941"
         id="path118" />
      <path
         d="m 103.63117,145.85688 v 0.66106 h -4.497495 q 0.06381,1.39556 0.60604,2.13008 0.547565,0.72716 1.520435,0.72716 0.56352,0 1.08982,-0.19098 0.53161,-0.19097 1.0526,-0.57291 v 1.27804 q -0.5263,0.3085 -1.07919,0.47008 -0.55287,0.1616 -1.12171,0.1616 -1.424735,0 -2.259379,-1.14583 -0.829328,-1.14584 -0.829328,-3.09962 0,-2.0199 0.786799,-3.20246 0.792107,-1.18991 2.131788,-1.18991 1.20146,0 1.89788,1.07238 0.70174,1.06503 0.70174,2.90131 z m -0.97818,-0.39663 q -0.0106,-1.10911 -0.45188,-1.77017 -0.43592,-0.66106 -1.15892,-0.66106 -0.8187,0 -1.313101,0.63902 -0.489096,0.63903 -0.563519,1.79955 z"
         style="font-size:12.7976px;line-height:1.25;font-family:sans-serif;letter-spacing:0.959823px;word-spacing:0.0415923px;writing-mode:lr-tb;stroke-width:0.319941"
         id="path120" />
      <path
         d="m 107.16963,140.56108 v 4.12059 h 1.35031 q 0.74958,0 1.15893,-0.53619 0.40935,-0.5362 0.40935,-1.52778 0,-0.98424 -0.40935,-1.52044 -0.40935,-0.53618 -1.15893,-0.53618 z m -1.07387,-1.21929 h 2.42418 q 1.33436,0 2.01483,0.83734 0.68579,0.83 0.68579,2.43857 0,1.62326 -0.68579,2.45326 -0.68047,0.82999 -2.01483,0.82999 h -1.35031 v 4.40705 h -1.07387 z"
         style="font-size:12.7976px;line-height:1.25;font-family:sans-serif;letter-spacing:0.959823px;word-spacing:0.0415923px;writing-mode:lr-tb;stroke-width:0.319941"
         id="path122" />
      <path
         d="m 115.35443,143.02902 q -0.7868,0 -1.24399,0.85204 -0.45719,0.84467 -0.45719,2.32104 0,1.47636 0.45187,2.3284 0.4572,0.84468 1.24931,0.84468 0.78147,0 1.23867,-0.85203 0.45719,-0.85204 0.45719,-2.32105 0,-1.46167 -0.45719,-2.3137 -0.4572,-0.85938 -1.23867,-0.85938 z m 0,-1.14583 q 1.27589,0 2.0042,1.14583 0.72832,1.14584 0.72832,3.17308 0,2.01989 -0.72832,3.17308 -0.72831,1.14583 -2.0042,1.14583 -1.2812,0 -2.00952,-1.14583 -0.723,-1.15319 -0.723,-3.17308 0,-2.02724 0.723,-3.17308 0.72832,-1.14583 2.00952,-1.14583 z"
         style="font-size:12.7976px;line-height:1.25;font-family:sans-serif;letter-spacing:0.959823px;word-spacing:0.0415923px;writing-mode:lr-tb;stroke-width:0.319941"
         id="path124" />
      <path
         d="m 120.52496,142.0815 h 0.97817 v 8.2265 h -0.97817 z m 0,-3.20244 h 0.97817 v 1.71139 h -0.97817 z"
         style="font-size:12.7976px;line-height:1.25;font-family:sans-serif;letter-spacing:0.959823px;word-spacing:0.0415923px;writing-mode:lr-tb;stroke-width:0.319941"
         id="path126" />
      <path
         d="m 129.31581,145.34272 v 4.96528 h -0.97818 v -4.9212 q 0,-1.16788 -0.32961,-1.74813 -0.3296,-0.58026 -0.98881,-0.58026 -0.79211,0 -1.2493,0.69778 -0.45719,0.69778 -0.45719,1.90237 v 4.64944 h -0.98349 v -8.2265 h 0.98349 v 1.27805 q 0.35086,-0.74185 0.82401,-1.1091 0.47845,-0.36726 1.10044,-0.36726 1.02603,0 1.55233,0.88142 0.52631,0.87406 0.52631,2.57811 z"
         style="font-size:12.7976px;line-height:1.25;font-family:sans-serif;letter-spacing:0.959823px;word-spacing:0.0415923px;writing-mode:lr-tb;stroke-width:0.319941"
         id="path128" />
      <path
         d="m 133.05096,139.74577 v 2.33573 h 2.01484 v 1.05036 h -2.01484 v 4.4658 q 0,1.00628 0.1967,1.29274 0.20202,0.28646 0.81338,0.28646 h 1.00476 v 1.13114 h -1.00476 q -1.13235,0 -1.56296,-0.58026 -0.43061,-0.5876 -0.43061,-2.13008 v -4.4658 h -0.71769 v -1.05036 h 0.71769 v -2.33573 z"
         style="font-size:12.7976px;line-height:1.25;font-family:sans-serif;letter-spacing:0.959823px;word-spacing:0.0415923px;writing-mode:lr-tb;stroke-width:0.319941"
         id="path130" />
    </g>
    <text
       xml:space="preserve"
       style="font-size:10.5833px;line-height:1.25;font-family:sans-serif;letter-spacing:0.79375px;word-spacing:0.0343958px;writing-mode:lr-tb;direction:ltr;stroke-width:0.264583"
       x="94.985413"
       y="221.98541"
       id="text1540"><tspan
         sodipodi:role="line"
         id="tspan1538"
         x="94.985413"
         y="221.98541"
         style="writing-mode:lr-tb;direction:ltr;stroke-width:0.264583" /></text>
  </g>
</svg>
